<mxfile host="app.diagrams.net" modified="2023-08-27T12:41:08.056Z" agent="Mozilla/5.0 (Windows NT 10.0; Win64; x64) AppleWebKit/537.36 (KHTML, like Gecko) Chrome/116.0.0.0 Safari/537.36" version="21.3.0" etag="FWyeOs4gVhChsBpxTwN_" type="github">
  <diagram name="Page-1" id="6AVX5TqSt6wIGzv3-mug">
    <mxGraphModel>
      <root>
        <mxCell id="0" />
        <mxCell id="1" parent="0" />
      </root>
    </mxGraphModel>
  </diagram>
</mxfile>
